<?xml version="1.0" encoding="UTF-8" standalone="no"?>
<!-- Created with Inkscape (http://www.inkscape.org/) -->

<svg
   version="1.1"
   id="svg2"
   width="2252.6985"
   height="2252.6985"
   viewBox="0 0 2252.6985 2252.6985"
   sodipodi:docname="dolibarr-connector.svg"
   inkscape:version="1.2.2 (b0a8486541, 2022-12-01)"
   xmlns:inkscape="http://www.inkscape.org/namespaces/inkscape"
   xmlns:sodipodi="http://sodipodi.sourceforge.net/DTD/sodipodi-0.dtd"
   xmlns="http://www.w3.org/2000/svg"
   xmlns:svg="http://www.w3.org/2000/svg">
  <defs
     id="defs6" />
  <sodipodi:namedview
     id="namedview4"
     pagecolor="#ffffff"
     bordercolor="#000000"
     borderopacity="0.25"
     inkscape:showpageshadow="2"
     inkscape:pageopacity="0.0"
     inkscape:pagecheckerboard="0"
     inkscape:deskcolor="#d1d1d1"
     showgrid="false"
     inkscape:zoom="0.38531566"
     inkscape:cx="464.55418"
     inkscape:cy="1182.1477"
     inkscape:current-layer="g8" />
  <g
     inkscape:groupmode="layer"
     inkscape:label="Image"
     id="g8">
    <path
       style="fill:#273d5b;stroke-width:2.53968;fill-opacity:1"
       d="m 690.03256,1398.2961 c 57.43426,-15.1509 103.31543,-77.9178 98.80765,-135.172 -5.68818,-72.2463 -64.57082,-127.886 -135.33987,-127.886 -37.03172,0 -67.22253,12.5116 -93.41638,38.7132 -27.9471,27.9554 -41.93095,60.8193 -41.88252,98.4297 0.0663,51.5532 38.81451,105.0714 89.44163,123.535 23.97207,8.7426 54.88503,9.6356 82.38949,2.3801 z M 640.0544,1332.835 c -14.76947,-2.5641 -29.89494,-13.604 -39.35518,-28.7249 -13.44185,-21.4849 -11.8468,-56.5152 3.4145,-74.9891 23.1468,-28.0194 65.87531,-31.1861 91.34695,-6.77 14.27051,13.6791 19.19208,25.8515 19.20148,47.4903 0.0102,21.4889 -3.44998,30.2059 -17.60391,44.3598 -16.34545,16.3455 -35.02101,22.4503 -57.00384,18.6339 z m 619.337,66.378 c 43.0952,-9.9352 83.309,-51.1185 95.4572,-97.7585 17.9951,-69.0881 -24.3769,-141.423 -94.992,-162.1646 -29.3286,-8.6146 -70.12,-1.4716 -89.7134,15.7098 -2.453,2.1511 -5.3101,3.0639 -6.3492,2.0285 -1.0391,-1.0354 -2.4606,-25.8345 -3.159,-55.1091 -1.0389,-43.5471 -1.9627,-53.6717 -5.0794,-55.674 -2.0952,-1.3461 -16.3496,-2.159 -31.6763,-1.8065 -26.8861,0.6183 -27.9796,0.8642 -31.0737,6.99 -3.9774,7.8747 -4.6394,221.3606 -0.76,245.0794 7.1411,43.6607 49.6286,89.3809 94.1963,101.3635 16.0065,4.3035 57.0374,5.056 73.1495,1.3415 z m -61.8358,-71.1021 c -48.1779,-24.0331 -48.3346,-92.5152 -0.2685,-117.2978 27.4698,-14.1633 66.8199,-0.5439 81.1151,28.0746 11.4774,22.9775 10.3009,45.6375 -3.4996,67.3985 -10.9154,17.2118 -29.4181,27.0222 -50.7756,26.9222 -11.2284,-0.053 -19.7264,-1.6829 -26.5714,-5.0975 z m 344.5362,68.5446 c 8.5703,-2.8871 20.4544,-8.6014 26.4092,-12.6984 13.1495,-9.0471 13.7213,-9.0929 13.7213,-1.0999 0,3.4921 2.4135,8.7627 5.3633,11.7126 4.8924,4.8923 7.565,5.2749 30.4374,4.3562 15.5229,-0.6235 26.2927,-2.2257 28.2732,-4.2062 2.3804,-2.3804 3.4382,-22.1046 4.1335,-77.076 1.0636,-84.083 -0.4909,-94.9724 -17.2582,-120.8917 -24.6583,-38.1176 -68.9956,-61.514 -116.5724,-61.514 -59.1307,0 -111.6279,40.8309 -128.7499,100.1381 -5.8681,20.326 -4.1331,60.3893 3.4625,79.9514 10.76,27.7122 34.7113,56.8032 58.008,70.456 27.8452,16.3183 64.0203,20.5577 92.7721,10.8719 z m -34.7902,-63.0865 c -51.5544,-12.8112 -69.5279,-75.1255 -31.8373,-110.3806 27.7859,-25.9905 61.8402,-24.4011 88.1235,4.1129 12.2748,13.3166 17.1081,26.0653 17.0907,45.0797 -0.015,15.3639 -8.4239,35.0274 -19.1572,44.7928 -14.1243,12.8505 -38.6455,20.2654 -54.2197,16.3952 z m -1144.12698,59.4912 c 49.2046,-13.1576 86.40259,-44.6659 107.99088,-91.4728 11.23073,-24.3501 14.74329,-41.2921 14.74329,-71.1112 0,-31.2774 -3.53511,-47.2542 -16.46781,-74.4259 -18.10006,-38.0282 -54.95352,-70.4433 -96.10763,-84.5331 -15.07988,-5.1628 -22.57009,-5.7532 -86.58403,-6.8245 -50.53301,-0.8456 -71.61956,-0.3466 -75.61058,1.7893 l -5.53451,2.962 0.68995,161.3566 c 0.67552,157.9804 0.79624,161.4363 5.76932,165.166 7.62613,5.7193 127.47421,3.4142 151.11112,-2.9064 z m -83.80953,-162.9326 v -98.1264 l 29.84127,1.3167 c 22.03495,0.9723 33.62926,2.7601 44.3216,6.8344 62.35416,23.7595 79.4874,116.4271 29.78776,161.1113 -22.37872,20.1204 -43.69897,26.9454 -84.26809,26.9757 l -19.68254,0.015 z m 651.03203,166.032 c 3.79047,-2.7716 4.28579,-7.1511 3.66001,-32.3608 l -0.72376,-29.1554 -12.2433,-2.2325 c -9.72379,-1.773 -12.82982,-3.6063 -15.09339,-8.9089 -1.9203,-4.4984 -3.31157,-49.9273 -4.26463,-139.2515 -1.10697,-103.7483 -2.131,-133.2921 -4.70951,-135.873 -2.326,-2.3282 -12.02294,-3.2981 -32.97446,-3.2981 h -29.67949 l -1.60203,11.4286 c -2.8125,20.0639 -4.93783,233.7726 -2.63154,264.6102 1.87245,25.0368 3.2644,31.471 8.88198,41.0566 8.76612,14.9583 25.34781,28.8851 39.63543,33.2895 14.72142,4.5381 45.91606,4.9573 51.74469,0.6953 z m 102.13338,-0.3974 c 4.7347,-3.4604 4.9621,-8.2113 5.7432,-120.0004 0.5365,-76.7885 -0.09,-118.7738 -1.8419,-123.3811 l -2.6553,-6.9838 h -30.6019 c -30.51226,0 -30.60913,0.02 -33.07869,6.5145 -1.47848,3.8887 -2.47682,53.4129 -2.47682,122.8649 v 116.3503 l 5.71428,3.986 c 7.76254,5.4149 52.01253,5.9004 59.19713,0.6496 z m 725.8673,-0.237 c 5.4297,-5.4297 6.4532,-17.3128 7.435,-86.3189 0.7212,-50.6969 1.6017,-62.6459 5.2331,-71.0181 8.8502,-20.4042 23.1248,-29.0115 51.6965,-31.1724 22.9707,-1.7373 23.5869,-2.7195 23.5869,-37.5988 0,-22.8016 -0.2976,-24.0981 -6.4582,-28.1346 -18.6715,-12.2341 -98.8375,11.8048 -137.6688,41.2819 l -8.254,6.2656 v 101.2767 c 0,88.6834 0.4963,101.7729 3.991,105.2675 5.6645,5.6646 54.8022,5.7874 60.4385,0.1512 z m 191.8125,-1.8744 c 1.1814,-3.1429 2.7696,-36 3.5292,-73.0159 0.7947,-38.7272 2.608,-71.3655 4.2709,-76.8734 3.1911,-10.5695 16.2381,-24.9697 28.2522,-31.1824 4.2731,-2.2097 15.9693,-4.6706 25.9915,-5.4686 10.0222,-0.7979 19.6507,-2.5785 21.3968,-3.9567 3.9622,-3.1276 4.4143,-53.2347 0.5455,-60.4636 -2.0618,-3.8526 -5.3723,-4.9124 -15.3451,-4.9124 -31.3649,0 -72.5795,13.4343 -112.1535,36.5575 l -22.1912,12.9663 -0.031,100.3873 c -0.027,86.782 0.5048,101.1523 3.9225,106.0318 3.6768,5.2494 5.903,5.6444 31.8089,5.6444 26.5575,0 27.9554,-0.2662 30.0034,-5.7143 z m -377.9798,-261.0417 c 4.3819,-2.3451 4.9124,-5.5329 4.9124,-29.5153 0,-54.7615 -13.9004,-112.70806 -39.0484,-162.78072 -6.3429,-12.62939 -22.3125,-39.00087 -35.488,-58.60328 -29.2318,-43.49059 -33.0538,-52.65158 -31.7313,-76.05692 0.8155,-14.43332 2.5225,-20.01077 9.8179,-32.07914 11.1707,-18.47906 58.2946,-68.31075 80.6763,-85.31213 24.6349,-18.71283 62.2558,-36.18887 106.5528,-49.49691 58.1545,-17.47122 74.1031,-25.54642 84.6656,-42.86837 13.8785,-22.76036 -2.8553,-47.168 -41.2826,-60.21395 -29.1764,-9.90527 -51.7011,-12.37105 -129.0829,-14.13069 l -74.9207,-1.70367 -19.0476,-17.80737 c -72.96,-68.20945 -154.3268,-99.03469 -250.1587,-94.771 -45.5709,2.02753 -71.2288,7.55487 -123.8497,26.68028 -50.0049,18.17461 -62.3592,20.5245 -109.8011,20.88524 -19.55557,0.14857 -41.83451,1.01447 -49.50874,1.92396 -13.64092,1.61658 -14.14207,1.9662 -22.39343,15.62184 -8.63911,14.2974 -9.0069,17.68523 -4.28096,39.43238 1.51459,6.96965 0.8209,8.09141 -7.43987,12.03068 -20.92374,9.97786 -24.99061,33.63195 -10.5467,61.34286 4.80958,9.22728 7.61268,17.33136 6.27965,18.1552 -5.65273,3.49359 -42.91955,-20.00284 -81.2573,-51.23205 -9.22149,-7.51167 -38.5136,-34.64137 -65.09359,-60.28823 -50.39347,-48.62436 -62.98967,-57.57999 -80.84663,-57.48031 -39.81682,0.22222 -91.50657,61.90256 -104.09044,124.20892 -3.32143,16.44526 -3.89793,27.04186 -2.48709,45.71429 1.01008,13.36871 1.65912,28.87817 1.44229,34.46547 -2.65552,68.42263 1.07276,92.83056 20.33389,133.12014 14.61872,30.57879 28.89849,50.92538 58.0781,82.75289 18.64246,20.33417 26.69115,31.17569 29.57668,39.83964 11.68803,35.09369 66.60112,89.61474 102.03871,101.31018 10.64054,3.51169 42.40722,1.95939 58.48618,-2.85796 10.45942,-3.13374 14.54996,-7.49821 7.02758,-7.49821 -2.0511,0 -17.19396,-6.86344 -33.6508,-15.25211 -35.73557,-18.21577 -61.92833,-39.13196 -76.78956,-61.32018 -10.50748,-15.68795 -10.75868,-16.54479 -9.24488,-31.53501 l 1.55609,-15.40889 -17.38471,-11.87848 c -31.07091,-21.22979 -64.41882,-60.93092 -77.59269,-92.37511 -8.8625,-21.15353 -17.11924,-51.94614 -17.65039,-65.82522 -0.49183,-12.85128 2.60472,-16.14637 15.23086,-16.2074 15.90082,-0.077 16.65811,-1.78207 7.16599,-16.13638 -26.83266,-40.57722 -29.40178,-86.04417 -7.27327,-128.71909 9.9485,-19.1857 28.64722,-41.55246 39.37651,-47.1008 l 7.43949,-3.84711 47.37819,46.11591 c 54.12516,52.6831 80.71774,74.76861 123.8986,102.89954 32.32292,21.05732 107.24147,60.98905 109.7393,58.49125 0.81626,-0.81628 -0.96973,-8.95906 -3.96886,-18.09506 -3.54779,-10.80729 -5.45298,-23.04132 -5.45298,-35.01567 0,-15.64394 0.99223,-19.86497 6.6147,-28.13915 l 6.61468,-9.7344 -8.87454,-9.26784 c -10.52548,-10.99197 -17.96538,-24.81504 -16.04688,-29.81455 0.93552,-2.43789 5.65377,-3.60899 14.78695,-3.6702 14.10065,-0.0945 45.52887,-9.46029 46.94447,-13.98966 0.4557,-1.45804 -3.236,-4.12074 -8.2038,-5.91711 -11.46077,-4.14428 -29.13717,-20.80866 -29.13717,-27.469 0,-4.75109 2.24534,-5.18322 34.92067,-6.72107 39.0237,-1.8366 55.8556,-5.38067 116.1711,-24.4606 56.7158,-17.94123 76.185,-21.32907 123.194,-21.43695 56.1705,-0.12902 91.4244,7.37313 133.3333,28.37331 38.8763,19.48058 73.4999,49.43172 84.5916,73.17595 l 5.8614,12.54773 81.3,-0.94351 c 84.4446,-0.98002 129.818,1.71545 146.5485,8.7059 7.7449,3.23607 8.4898,4.24594 5.3484,7.25085 -2.0075,1.92015 -24.449,9.872 -49.8701,17.67083 -86.4406,26.51865 -118.8861,43.96973 -163.4377,87.90641 -36.0648,35.56697 -50.301,54.62622 -61.2232,81.96488 -7.2038,18.03122 -8.3311,23.84849 -8.2323,42.47957 0.1734,32.68907 5.7876,44.47274 56.4673,118.51732 12.1543,17.75784 30.5155,59.84231 38.2144,87.58874 6.6545,23.9827 10.4634,55.3251 10.4634,86.1001 v 24.4029 l 12.0635,2.6156 c 16.5605,3.5907 25.485,3.7864 31.2781,0.686 z m -546.8014,-14.3161 c 18.005,-13.4426 23.4051,-35.6454 13.1203,-53.9446 -7.3605,-13.0964 -14.6129,-17.885 -29.8131,-19.6853 -23.01184,-2.7254 -42.23686,12.8923 -45.46111,36.9309 -1.79287,13.3667 8.19913,31.1535 21.589,38.4307 11.67822,6.3469 30.84011,5.5289 40.56491,-1.7317 z m 303.981,-497.64835 c 2.2611,-0.86769 5.8125,-4.86769 7.892,-8.88889 3.3622,-6.50187 3.347,-8.15002 -0.1369,-14.88734 -7.4458,-14.39858 -28.1537,-20.03035 -35.4338,-9.63663 -12.9935,18.55086 6.1587,41.67084 27.6787,33.41286 z"
       id="path2614"
       sodipodi:nodetypes="ssssssssssscsssssssssssssssssscssssssssssssssssscssssssssscsssccscscccsscssssscsssssssscssscssssssssscssssssssssssscsssssssssssssssscssssssssssssssscssssssssscssssssscsssssscssssssssssscsssssssssscsssssssssssss" />
    <path
       d="m 317.94541,1589.9177 c 4.8888,-1.5177 13.9768,-6.3086 20.1954,-10.6464 6.2186,-4.3377 12.4962,-8.6972 13.9501,-9.6877 1.6013,-1.0909 -1.1872,-5.7241 -7.0727,-11.7514 l -9.7164,-9.9504 -14.06,8.4665 c -7.733,4.6566 -18.8623,9.1866 -24.7318,10.0668 -21.7635,3.2636 -44.6992,-8.0518 -54.1202,-26.7003 -7.1454,-14.1442 -7.27,-28.2748 -0.3749,-42.5181 14.1236,-29.1756 51.9987,-36.6731 82.2214,-16.2761 l 10.7614,7.2628 9.8865,-8.3239 9.8865,-8.324 -6.2597,-6.6928 c -3.4429,-3.6811 -13.3478,-10.1823 -22.0109,-14.4471 -14.9086,-7.3395 -17.0868,-7.705 -40.7243,-6.8329 -28.8211,1.0632 -39.5378,5.1378 -55.5023,21.1023 -16.2662,16.2662 -20.2662,26.8167 -20.2402,53.3862 0.019,19.8448 0.9182,24.5608 6.8199,35.7842 10.3514,19.685 29.959,35.0486 50.2985,39.4115 10.7251,2.3005 38.5297,0.4781 50.7937,-3.3292 z m 136.3342,-1.6524 c 20.5319,-10.5587 31.2848,-28.1451 31.2848,-51.1665 0,-31.3518 -21.7527,-54.2912 -54.708,-57.6925 -35.9723,-3.7127 -67.83,33.238 -59.7573,69.3104 8.2991,37.0845 49.6974,56.7675 83.1805,39.5486 z m -39.027,-21.8679 c -15.4144,-6.7041 -21.1997,-32.2297 -11.07,-48.8428 5.6321,-9.237 20.8721,-15.186 31.8466,-12.4316 24.4234,6.1298 28.699,44.3625 6.62,59.1946 -9.8504,6.6172 -15.9071,7.077 -27.3966,2.0798 z m 432.2045,20.3666 c 19.2307,-11.27 20.5174,-16.6377 5.1998,-21.6929 -6.9602,-2.2971 -11.0521,-2.0793 -20.3708,1.0845 -14.6167,4.9625 -19.0548,4.9533 -31.5987,-0.066 -8.507,-3.4039 -17.9801,-12.6099 -17.9801,-17.4732 0,-0.7475 20.7011,-1.3592 46.0026,-1.3592 h 46.0027 l -1.6621,-12.0635 c -4.5174,-32.786 -24.9842,-53.4299 -55.2868,-55.7649 -14.0859,-1.0854 -17.6866,-0.352 -29.9771,6.1062 -24.4651,12.8554 -37.1807,41.9969 -29.4839,67.5715 6.4185,21.3268 20.0209,34.6852 40.9125,40.1784 13.0621,3.4346 36.7079,0.2382 48.2419,-6.5212 z m -60.7972,-64.6718 c -2.0905,-3.3825 12.464,-14.767 21.3834,-16.7261 4.2239,-0.9277 11.0181,-0.9535 15.0982,-0.057 8.7129,1.9137 21.4951,12.9168 19.2414,16.5633 -1.9607,3.1724 -53.7719,3.3772 -55.723,0.2201 z m 199.75933,63.8977 c 7.387,-4.1703 13.78366,-9.3615 14.21496,-11.536 0.4477,-2.258 -3.21306,-6.6696 -8.53616,-10.2867 l -9.32003,-6.3331 -7.9719,4.8609 c -10.5757,6.4488 -36.0996,6.6693 -43.8651,0.3791 -7.9481,-6.4383 -11.0909,-14.056 -11.0909,-26.8833 0,-26.7062 33.7534,-41.5777 55.8407,-24.603 6.2755,4.8228 6.3965,4.8113 18.45483,-1.7516 l 12.13776,-6.6063 -5.4436,-5.7945 c -10.35956,-11.0273 -27.27789,-17.1033 -48.16819,-17.2991 -17.1454,-0.1608 -20.6044,0.6579 -31.746,7.5127 -45.9947,28.2981 -38.1396,88.7088 13.7217,105.5283 13.2557,4.2991 37.3509,0.954 51.77193,-7.1874 z m 186.59056,2.2754 c 20.5319,-10.5587 31.2848,-28.1451 31.2848,-51.1665 0,-31.3518 -21.7527,-54.2912 -54.708,-57.6925 -35.9723,-3.7127 -67.83,33.238 -59.7574,69.3104 8.2992,37.0845 49.6975,56.7675 83.1806,39.5486 z m -39.0271,-21.8679 c -15.4143,-6.7041 -21.1996,-32.2297 -11.0699,-48.8428 5.6321,-9.237 20.8721,-15.186 31.8466,-12.4316 24.4233,6.1298 28.699,44.3625 6.6199,59.1946 -9.8504,6.6172 -15.907,7.077 -27.3966,2.0798 z m -595.07549,-8.3462 c 0.01,-30.2343 0.6793,-36.0192 5.0006,-43.1065 8.2138,-13.4713 28.3124,-14.5262 33.1733,-1.7411 1.3465,3.5415 3.1978,22.9381 4.1141,43.1037 l 1.666,36.6645 h 13.8987 13.8986 l -1.1122,-42.7488 c -0.9477,-36.4269 -1.8408,-43.9932 -6.0391,-51.1631 -11.0862,-18.9333 -29.9684,-24.7006 -50.7593,-15.5038 -10.7948,4.775 -12.5598,4.9646 -14.4684,1.5541 -1.5362,-2.7451 -6.2339,-3.8844 -16.0159,-3.8844 h -13.8421 v 55.873 55.873 h 15.2381 15.2381 l 0.01,-34.9206 z m 126.9842,0 c 0.01,-30.2343 0.6793,-36.0192 5.0006,-43.1065 8.2137,-13.4713 28.3124,-14.5262 33.1732,-1.7411 1.3465,3.5415 3.1979,22.9381 4.1141,43.1037 l 1.666,36.6645 h 13.8987 13.8986 l -1.1122,-42.7488 c -0.9477,-36.4269 -1.8408,-43.9932 -6.0391,-51.1631 -11.0862,-18.9333 -29.9684,-24.7006 -50.7593,-15.5038 -10.7947,4.775 -12.5598,4.9646 -14.4684,1.5541 -1.5362,-2.7451 -6.2339,-3.8844 -16.0159,-3.8844 h -13.842 v 55.873 55.873 h 15.2381 15.2381 l 0.01,-34.9206 z m 396.18099,-9.3629 v -44.2835 l 8.2539,-0.7959 c 7.8039,-0.7524 8.254,-1.3498 8.254,-10.9545 0,-9.6048 -0.4501,-10.2022 -8.254,-10.9546 l -8.2539,-0.7958 v -20.1566 -20.1565 h -13.9683 -13.9682 v 20.3174 20.3175 h -7.7651 c -7.5648,0 -7.7449,0.2784 -6.9842,10.7936 0.6988,9.6583 1.5157,10.8782 7.7651,11.5973 l 6.9842,0.8036 v 44.2758 44.2757 h 13.9682 13.9683 z m 188.3385,6.7039 c 0.9577,-41.4737 4.0035,-51.3093 15.8887,-51.3093 4.6631,0 6.9435,-2.3208 10.1466,-10.3261 2.2724,-5.6794 3.4719,-11.3937 2.6656,-12.6984 -2.4569,-3.9753 -12.1191,-2.6434 -21.2629,2.931 -7.736,4.7161 -8.9101,4.8516 -10.9199,1.2603 -1.5289,-2.732 -5.8807,-4.0239 -13.5543,-4.0239 h -11.3023 v 55.873 55.873 h 13.7353 13.7353 z m 201.8883,-2.6874 c 36.0139,-27.9018 80.9695,-77.737 97.0251,-107.5563 4.291,-7.9695 9.2286,-16.7747 10.9724,-19.5671 1.7439,-2.7923 2.5482,-5.6995 1.7873,-6.4604 -0.7609,-0.7609 -10.8034,-0.051 -22.3168,1.577 l -20.9335,2.9603 -14.0601,28.1488 c -14.9463,29.923 -39.2725,65.8128 -62.975,92.9107 -27.3726,31.2939 -23.4417,34.2838 10.5006,7.987 z"
       style="fill:#000000;stroke-width:2.53968;fill-opacity:0.56999999"
       id="path2774"
       sodipodi:nodetypes="sssscssssscccsssscssssssssssssscssssscsssssccsscsssssscssssscssssssssssssssscssscccsssssccccccccssscccssssscccccccccssscccccccsssccccccssssssscccccsssssscsss" />
  </g>
</svg>
